<?xml version="1.0" encoding="UTF-8" standalone="no"?><!DOCTYPE svg PUBLIC "-//W3C//DTD SVG 1.1//EN" "http://www.w3.org/Graphics/SVG/1.1/DTD/svg11.dtd"><!-- Generated by graphviz version 2.40.1 (20161225.0304)
 --><!-- Title: HSV Pages: 1 --><svg xmlns="http://www.w3.org/2000/svg" xmlns:xlink="http://www.w3.org/1999/xlink" width="2139pt" height="227pt" viewBox="0.00 0.00 2139.10 227.20">
<g id="graph0" class="graph" transform="scale(1 1) rotate(0) translate(4 223.2)">
<title>HSV</title>
<polygon fill="#ffffff" stroke="transparent" points="-4,4 -4,-223.2 2135.1008,-223.2 2135.1008,4 -4,4"/>
<!-- HSV -->
<g id="node1" class="node">
<title>HSV</title>
<polygon fill="#add8e6" stroke="#add8e6" points="676.9836,-219.2 533.1532,-219.2 533.1532,-183.2 676.9836,-183.2 676.9836,-219.2"/>
<text text-anchor="middle" x="605.0684" y="-197" font-family="Times,serif" font-size="14.00" fill="#000000">Espacio de Color HSV</text>
</g>
<!-- Matiz -->
<g id="node2" class="node">
<title>Matiz</title>
<polygon fill="#add8e6" stroke="#add8e6" points="193.366,-147.2 108.7708,-147.2 108.7708,-111.2 193.366,-111.2 193.366,-147.2"/>
<text text-anchor="middle" x="151.0684" y="-125" font-family="Times,serif" font-size="14.00" fill="#000000">Matiz (Hue)</text>
</g>
<!-- HSV&#45;&gt;Matiz -->
<g id="edge1" class="edge">
<title>HSV-&gt;Matiz</title>
<path fill="none" stroke="#000000" d="M532.9348,-191.9308C458.5885,-182.0692 339.4248,-165.4043 237.0684,-147.2 226.1449,-145.2572 214.4863,-142.9654 203.3921,-140.6797"/>
<polygon fill="#000000" stroke="#000000" points="203.9039,-137.2111 193.3995,-138.5924 202.4726,-144.0632 203.9039,-137.2111"/>
</g>
<!-- Saturacion -->
<g id="node4" class="node">
<title>Saturacion</title>
<polygon fill="#add8e6" stroke="#add8e6" points="396.4626,-147.2 245.6742,-147.2 245.6742,-111.2 396.4626,-111.2 396.4626,-147.2"/>
<text text-anchor="middle" x="321.0684" y="-125" font-family="Times,serif" font-size="14.00" fill="#000000">Saturación (Saturation)</text>
</g>
<!-- HSV&#45;&gt;Saturacion -->
<g id="edge3" class="edge">
<title>HSV-&gt;Saturacion</title>
<path fill="none" stroke="#000000" d="M533.7698,-183.1243C493.7637,-172.9819 443.7057,-160.2912 402.2034,-149.7694"/>
<polygon fill="#000000" stroke="#000000" points="402.9498,-146.348 392.3963,-147.2831 401.2296,-153.1334 402.9498,-146.348"/>
</g>
<!-- Valor -->
<g id="node6" class="node">
<title>Valor</title>
<polygon fill="#add8e6" stroke="#add8e6" points="590.1885,-147.2 495.9483,-147.2 495.9483,-111.2 590.1885,-111.2 590.1885,-147.2"/>
<text text-anchor="middle" x="543.0684" y="-125" font-family="Times,serif" font-size="14.00" fill="#000000">Valor (Value)</text>
</g>
<!-- HSV&#45;&gt;Valor -->
<g id="edge5" class="edge">
<title>HSV-&gt;Valor</title>
<path fill="none" stroke="#000000" d="M589.4232,-183.0314C582.2093,-174.654 573.5114,-164.5531 565.6079,-155.3749"/>
<polygon fill="#000000" stroke="#000000" points="568.1017,-152.9071 558.9243,-147.6133 562.7973,-157.4748 568.1017,-152.9071"/>
</g>
<!-- Mapeo -->
<g id="node8" class="node">
<title>Mapeo</title>
<polygon fill="#add8e6" stroke="#add8e6" points="805.2044,-147.2 686.9324,-147.2 686.9324,-111.2 805.2044,-111.2 805.2044,-147.2"/>
<text text-anchor="middle" x="746.0684" y="-125" font-family="Times,serif" font-size="14.00" fill="#000000">Mapeo de Colores</text>
</g>
<!-- HSV&#45;&gt;Mapeo -->
<g id="edge7" class="edge">
<title>HSV-&gt;Mapeo</title>
<path fill="none" stroke="#000000" d="M640.6487,-183.0314C659.1009,-173.6089 681.8229,-162.0062 701.4414,-151.9883"/>
<polygon fill="#000000" stroke="#000000" points="703.1852,-155.0278 710.4995,-147.3628 700.0017,-148.7935 703.1852,-155.0278"/>
</g>
<!-- Ventajas -->
<g id="node10" class="node">
<title>Ventajas</title>
<polygon fill="#add8e6" stroke="#add8e6" points="1177.6456,-147.2 1060.4912,-147.2 1060.4912,-111.2 1177.6456,-111.2 1177.6456,-147.2"/>
<text text-anchor="middle" x="1119.0684" y="-125" font-family="Times,serif" font-size="14.00" fill="#000000">Ventajas del HSV</text>
</g>
<!-- HSV&#45;&gt;Ventajas -->
<g id="edge9" class="edge">
<title>HSV-&gt;Ventajas</title>
<path fill="none" stroke="#000000" d="M677.0791,-191.1129C776.0789,-177.2452 952.9874,-152.4643 1050.269,-138.8373"/>
<polygon fill="#000000" stroke="#000000" points="1050.8732,-142.2869 1060.291,-137.4334 1049.9021,-135.3546 1050.8732,-142.2869"/>
</g>
<!-- CirculoCromatico -->
<g id="node12" class="node">
<title>CirculoCromatico</title>
<polygon fill="#add8e6" stroke="#add8e6" points="1665.6969,-147.2 1536.4399,-147.2 1536.4399,-111.2 1665.6969,-111.2 1665.6969,-147.2"/>
<text text-anchor="middle" x="1601.0684" y="-125" font-family="Times,serif" font-size="14.00" fill="#000000">Círculo Cromático</text>
</g>
<!-- HSV&#45;&gt;CirculoCromatico -->
<g id="edge11" class="edge">
<title>HSV-&gt;CirculoCromatico</title>
<path fill="none" stroke="#000000" d="M677.0989,-195.993C859.8673,-182.7808 1340.2815,-148.0521 1526.1465,-134.616"/>
<polygon fill="#000000" stroke="#000000" points="1526.6467,-138.0891 1536.3683,-133.8771 1526.1419,-131.1073 1526.6467,-138.0891"/>
</g>
<!-- MatizDetalles -->
<g id="node3" class="node">
<title>MatizDetalles</title>
<polygon fill="#add8e6" stroke="#add8e6" points="150.2053,-58.2019 -.0685,-58.2019 -.0685,-16.9981 150.2053,-16.9981 150.2053,-58.2019"/>
<text text-anchor="middle" x="75.0684" y="-41.8" font-family="Times,serif" font-size="14.00" fill="#000000">- Representa el color</text>
<text text-anchor="middle" x="75.0684" y="-25" font-family="Times,serif" font-size="14.00" fill="#000000">- Rango: 0 a 360 grados</text>
</g>
<!-- Matiz&#45;&gt;MatizDetalles -->
<g id="edge2" class="edge">
<title>Matiz-&gt;MatizDetalles</title>
<path fill="none" stroke="#000000" d="M136.0532,-111.1028C125.3953,-98.2571 110.8732,-80.7542 98.6738,-66.0507"/>
<polygon fill="#000000" stroke="#000000" points="101.2535,-63.6786 92.1746,-58.2175 95.8663,-68.1483 101.2535,-63.6786"/>
</g>
<!-- SaturacionDetalles -->
<g id="node5" class="node">
<title>SaturacionDetalles</title>
<polygon fill="#add8e6" stroke="#add8e6" points="392.0468,-58.2019 168.09,-58.2019 168.09,-16.9981 392.0468,-16.9981 392.0468,-58.2019"/>
<text text-anchor="middle" x="280.0684" y="-41.8" font-family="Times,serif" font-size="14.00" fill="#000000">- Representa la dominancia del matiz</text>
<text text-anchor="middle" x="280.0684" y="-25" font-family="Times,serif" font-size="14.00" fill="#000000">- Rango: 0 a 100%</text>
</g>
<!-- Saturacion&#45;&gt;SaturacionDetalles -->
<g id="edge4" class="edge">
<title>Saturacion-&gt;SaturacionDetalles</title>
<path fill="none" stroke="#000000" d="M312.9681,-111.1028C307.4314,-98.7329 299.9616,-82.0443 293.5391,-67.6956"/>
<polygon fill="#000000" stroke="#000000" points="296.5768,-65.915 289.2967,-58.2175 290.1876,-68.7748 296.5768,-65.915"/>
</g>
<!-- ValorDetalles -->
<g id="node7" class="node">
<title>ValorDetalles</title>
<polygon fill="#add8e6" stroke="#add8e6" points="596.2287,-58.2019 409.9081,-58.2019 409.9081,-16.9981 596.2287,-16.9981 596.2287,-58.2019"/>
<text text-anchor="middle" x="503.0684" y="-41.8" font-family="Times,serif" font-size="14.00" fill="#000000">- Representa el brillo del color</text>
<text text-anchor="middle" x="503.0684" y="-25" font-family="Times,serif" font-size="14.00" fill="#000000">- Rango: 0 a 100%</text>
</g>
<!-- Valor&#45;&gt;ValorDetalles -->
<g id="edge6" class="edge">
<title>Valor-&gt;ValorDetalles</title>
<path fill="none" stroke="#000000" d="M535.1657,-111.1028C529.764,-98.7329 522.4764,-82.0443 516.2106,-67.6956"/>
<polygon fill="#000000" stroke="#000000" points="519.2811,-65.9811 512.0717,-58.2175 512.8661,-68.7825 519.2811,-65.9811"/>
</g>
<!-- MapeoDetalles -->
<g id="node9" class="node">
<title>MapeoDetalles</title>
<polygon fill="#add8e6" stroke="#add8e6" points="957.0782,-67.0014 615.0586,-67.0014 615.0586,-8.1986 957.0782,-8.1986 957.0782,-67.0014"/>
<text text-anchor="middle" x="786.0684" y="-50.2" font-family="Times,serif" font-size="14.00" fill="#000000">- El matiz se mapea a un punto en el círculo cromático</text>
<text text-anchor="middle" x="786.0684" y="-33.4" font-family="Times,serif" font-size="14.00" fill="#000000">- La saturación es la distancia desde el centro del círculo</text>
<text text-anchor="middle" x="786.0684" y="-16.6" font-family="Times,serif" font-size="14.00" fill="#000000">- El valor es la luminosidad del color</text>
</g>
<!-- Mapeo&#45;&gt;MapeoDetalles -->
<g id="edge8" class="edge">
<title>Mapeo-&gt;MapeoDetalles</title>
<path fill="none" stroke="#000000" d="M753.9711,-111.1028C758.3187,-101.1467 763.888,-88.3931 769.163,-76.3134"/>
<polygon fill="#000000" stroke="#000000" points="772.5069,-77.4016 773.3013,-66.8366 766.0918,-74.6003 772.5069,-77.4016"/>
</g>
<!-- VentajasDetalles -->
<g id="node11" class="node">
<title>VentajasDetalles</title>
<polygon fill="#add8e6" stroke="#add8e6" points="1656.963,-67.0014 975.1738,-67.0014 975.1738,-8.1986 1656.963,-8.1986 1656.963,-67.0014"/>
<text text-anchor="middle" x="1316.0684" y="-50.2" font-family="Times,serif" font-size="14.00" fill="#000000">- Más intuitivo para los humanos que el RGB</text>
<text text-anchor="middle" x="1316.0684" y="-33.4" font-family="Times,serif" font-size="14.00" fill="#000000">- Separación clara entre la información de color (Hue) y la información de luminosidad (Value)</text>
<text text-anchor="middle" x="1316.0684" y="-16.6" font-family="Times,serif" font-size="14.00" fill="#000000">- Útil para aplicaciones de procesamiento de imágenes, como la detección de colores y la segmentación de imágenes</text>
</g>
<!-- Ventajas&#45;&gt;VentajasDetalles -->
<g id="edge10" class="edge">
<title>Ventajas-&gt;VentajasDetalles</title>
<path fill="none" stroke="#000000" d="M1157.9893,-111.1028C1182.4753,-99.7174 1214.8296,-84.6735 1243.8865,-71.1628"/>
<polygon fill="#000000" stroke="#000000" points="1245.5985,-74.2266 1253.1905,-66.8366 1242.6471,-67.8792 1245.5985,-74.2266"/>
</g>
<!-- CirculoCromaticoDetalles -->
<g id="node13" class="node">
<title>CirculoCromaticoDetalles</title>
<polygon fill="#add8e6" stroke="#add8e6" points="2131.1332,-75.3003 1675.0036,-75.3003 1675.0036,.1003 2131.1332,.1003 2131.1332,-75.3003"/>
<text text-anchor="middle" x="1903.0684" y="-58.6" font-family="Times,serif" font-size="14.00" fill="#000000">- Representación circular de los colores</text>
<text text-anchor="middle" x="1903.0684" y="-41.8" font-family="Times,serif" font-size="14.00" fill="#000000">- Los colores primarios y secundarios están distribuidos alrededor del círculo</text>
<text text-anchor="middle" x="1903.0684" y="-25" font-family="Times,serif" font-size="14.00" fill="#000000">- Los colores opuestos en el círculo son complementarios</text>
<text text-anchor="middle" x="1903.0684" y="-8.2" font-family="Times,serif" font-size="14.00" fill="#000000">- Utilizado en el mapeo del matiz en HSV</text>
</g>
<!-- CirculoCromatico&#45;&gt;CirculoCromaticoDetalles -->
<g id="edge12" class="edge">
<title>CirculoCromatico-&gt;CirculoCromaticoDetalles</title>
<path fill="none" stroke="#000000" d="M1660.7339,-111.1028C1691.873,-101.6579 1731.3128,-89.6954 1769.2817,-78.179"/>
<polygon fill="#000000" stroke="#000000" points="1770.3435,-81.5145 1778.8971,-75.2626 1768.3117,-74.8158 1770.3435,-81.5145"/>
</g>
</g>
</svg>